<?xml version="1.0" encoding="UTF-8"?>
<svg xmlns="http://www.w3.org/2000/svg" viewBox="0 0 1600 900" role="img" aria-labelledby="title description">
  <title id="title">Reconcile the files with a manifest and record exclusions or failures.</title>
  <desc id="description">A browser page beside the consistent Page 2 File extension popup.</desc>
  <defs>
    <filter id="popupShadow" x="-30%" y="-20%" width="160%" height="160%">
      <feDropShadow dx="0" dy="12" stdDeviation="16" flood-color="#1d2f50" flood-opacity=".18"/>
    </filter>
    <marker id="arrowHead" markerWidth="18" markerHeight="18" refX="15" refY="9" orient="auto" markerUnits="userSpaceOnUse">
      <path d="M0 0 18 9 0 18Z" fill="#f0523d"/>
    </marker>
  </defs>
  <g font-family="Inter, Arial, sans-serif">
    
  <rect width="1600" height="900" rx="30" fill="#eaf0fb"/>
  <rect x="20" y="18" width="1560" height="864" rx="24" fill="#ffffff" stroke="#cbd4e2" stroke-width="2"/>
  <path d="M44 18h1512a24 24 0 0 1 24 24v65H20V42a24 24 0 0 1 24-24Z" fill="#eef2f7"/>
  <circle cx="54" cy="53" r="8" fill="#ff6b63"/>
  <circle cx="79" cy="53" r="8" fill="#ffbd45"/>
  <circle cx="104" cy="53" r="8" fill="#31c552"/>
  <rect x="132" y="32" width="420" height="48" rx="14" fill="#ffffff" stroke="#d6dde8"/>
  <circle cx="158" cy="56" r="12" fill="#2d68c4"/>
  <text x="180" y="63" font-size="20" font-weight="650" fill="#152348">Product Documentation</text>
  <rect x="585" y="32" width="790" height="48" rx="24" fill="#ffffff" stroke="#d6dde8"/>
  <path d="M616 56h14m-7-7v14" stroke="#758299" stroke-width="2" stroke-linecap="round"/>
  <text x="648" y="63" font-size="19" fill="#68758a">https://docs.example</text>
  <circle cx="1413" cy="56" r="17" fill="#dce6f7"/>
  <circle cx="1464" cy="56" r="17" fill="#dce6f7"/>
  <circle cx="1515" cy="56" r="17" fill="#dce6f7"/>

    
  <rect x="42" y="126" width="1038" height="716" rx="22" fill="#f8fafc" stroke="#dce3ed"/>
  <rect x="42" y="126" width="1038" height="78" rx="22" fill="#ffffff"/>
  <rect x="42" y="182" width="1038" height="22" fill="#ffffff"/>
  <circle cx="80" cy="165" r="18" fill="#2d68c4"/>
  <text x="112" y="172" font-size="25" font-weight="700" fill="#142347">Product Documentation</text>
  <rect x="844" y="148" width="78" height="14" rx="7" fill="#d9e1ed"/>
  <rect x="940" y="148" width="104" height="14" rx="7" fill="#d9e1ed"/>
  <rect x="68" y="226" width="116" height="34" rx="17" fill="#2d68c4" opacity=".13"/>
  <text x="88" y="249" font-size="16" font-weight="700" fill="#2d68c4">STEP 6</text>
  <text x="68" y="303" font-size="30" font-weight="750" fill="#122247">Reconcile the files with a manifest and record</text><text x="68" y="340.5" font-size="30" font-weight="750" fill="#122247">exclusions or failures.</text>

    
  <rect x="68" y="382" width="190" height="82" rx="16" fill="#ffffff" stroke="#d8e0eb"/>
  <text x="96" y="431" font-size="20" font-weight="700" fill="#1b2a4d">Home</text>
  <path d="M258 423h72M330 423v164" stroke="#9eabbc" stroke-width="4"/>
  <rect x="352" y="382" width="210" height="82" rx="16" fill="#2d68c4" opacity=".13" stroke="#2d68c4"/>
  <text x="380" y="431" font-size="20" font-weight="700" fill="#1b2a4d">Documentation</text>
  <rect x="352" y="498" width="210" height="82" rx="16" fill="#ffffff" stroke="#d8e0eb"/>
  <text x="380" y="547" font-size="20" font-weight="700" fill="#1b2a4d">Tutorials</text>
  <rect x="352" y="614" width="210" height="82" rx="16" fill="#ffffff" stroke="#d8e0eb"/>
  <text x="380" y="663" font-size="20" font-weight="700" fill="#1b2a4d">Reference</text>
  <path d="M562 423h104" stroke="#9eabbc" stroke-width="4"/>
  <rect x="688" y="382" width="166" height="82" rx="16" fill="#ffffff" stroke="#d8e0eb"/>
  <text x="716" y="431" font-size="18" font-weight="700" fill="#1b2a4d">Selected page</text>

    <rect x="620" y="365" width="254" height="376" rx="20" fill="#ffffff" stroke="#2d68c4" stroke-width="3"/>
    <text x="646" y="401" font-size="15" font-weight="800" fill="#2d68c4">CONCEPTUAL REVIEW RECORD</text>
    
          <rect x="646" y="430" width="202" height="68" rx="10" fill="#f2f5fa" stroke="#d8e0eb"/>
          <text x="666" y="470" font-size="15" font-weight="700" fill="#263756">ACCEPTED</text>
        
          <rect x="646" y="522" width="202" height="68" rx="10" fill="#f2f5fa" stroke="#d8e0eb"/>
          <text x="666" y="562" font-size="15" font-weight="700" fill="#263756">EXCLUDED</text>
        
          <rect x="646" y="614" width="202" height="68" rx="10" fill="#f2f5fa" stroke="#d8e0eb"/>
          <text x="666" y="654" font-size="15" font-weight="700" fill="#263756">FAILED</text>
        
  
    <rect x="68" y="796" width="610" height="30" rx="15" fill="#fff0ed" stroke="#f0523d"/>
       <text x="86" y="817" font-size="14" font-weight="800" fill="#a62d22">CONCEPTUAL WORKFLOW · NOT AN EXTENSION CONTROL</text>
    
    <g data-popup-master="page2file-popup-v3" data-popup-geometry="455x751" transform="translate(1118 112)">
      <defs>
        <clipPath id="sourceTitleClip">
          <rect x="91" y="139" width="214" height="21"/>
        </clipPath>
        <clipPath id="sourceUrlClip">
          <rect x="68" y="147" width="342" height="26"/>
        </clipPath>
      </defs>
      <rect x="0" y="0" width="455" height="751" rx="16" fill="#ffffff" stroke="#d3d9e3" stroke-width="2" filter="url(#popupShadow)"/>
      <g data-popup-role="brand-logo" data-bounds="21,31,38,38">
        <rect x="21" y="31" width="38" height="38" rx="8" fill="#102e6f"/>
        <path d="M28 37h17l6 6v18H28z" fill="#f5f8ff"/>
        <path d="M45 37v7h6" fill="#b9d7ff"/>
        <path d="M32 45h10M32 50h8M32 55h6" stroke="#257fe5" stroke-width="1.5"/>
        <circle cx="47" cy="52" r="6.5" fill="none" stroke="#71b7ff" stroke-width="2.2"/>
        <path d="m51.5 56.5 4 4" stroke="#71b7ff" stroke-width="2.2" stroke-linecap="round"/>
        <text x="25" y="66" font-size="5.1" font-weight="700" fill="#fff">page2file</text>
      </g>
      <text x="69" y="58" font-size="25" font-weight="760" fill="#102652">Page 2 File</text>
      <circle cx="380" cy="49" r="5" fill="#168cf2"/>
      <text x="393" y="56" font-size="15" fill="#7b8493">Ready</text>

      <rect x="21" y="85" width="410" height="34" rx="8" fill="#f5f6f8" stroke="#c9ced8"/>
      <rect x="21" y="85" width="205" height="34" rx="8" fill="#2188ef"/>
      <text x="123" y="107" text-anchor="middle" font-size="15" font-weight="700" fill="#fff">Current tab</text>
      <text x="329" y="107" text-anchor="middle" font-size="15" font-weight="500" fill="#263247">By URL</text>

      <rect x="21" y="131" width="410" height="59" rx="10" fill="#fff" stroke="#c9ced8"/>
             <rect x="31" y="140" width="42" height="42" rx="8" fill="#2d68c4" opacity=".14" stroke="#2d68c4"/>
                    <circle cx="52" cy="161" r="12" fill="#2d68c4"/>
             <text data-source-title="true" data-source-title-truncated="false" data-safe-zone="91,139,214,21" clip-path="url(#sourceTitleClip)" x="91" y="155" font-size="15" font-weight="700" fill="#17284d">Product Documentation</text>
             <text x="91" y="177" font-size="12" fill="#8a93a2">docs.example</text>
             <g data-popup-role="capture-status" data-bounds="317,149,114,22">
               <circle cx="322" cy="160" r="5" fill="#28ad64"/>
               <text x="334" y="166" font-size="12" font-weight="650" fill="#29955c">Ready to capture</text>
             </g>

      <text x="21" y="222" font-size="17" font-weight="750" fill="#13264d">Choose format</text>
      <rect x="21" y="235" width="198" height="171" rx="12" fill="#fff9f7" stroke="#f0523d" stroke-width="1.8"/>
      <rect x="232" y="235" width="199" height="171" rx="12" fill="#fff" stroke="#cbd1da" stroke-width="1"/>
      <circle cx="41" cy="255" r="9" fill="#f0523d"/><path d="m37 255 3 3 6-7" fill="none" stroke="#fff" stroke-width="2.5" stroke-linecap="round" stroke-linejoin="round"/>
      <circle cx="252" cy="255" r="9" fill="#fff" stroke="#9aa5b5" stroke-width="1.6"/>
      
    <g data-popup-role="pdf-icon" data-bounds="94,264,49,66">
      <path d="M101 264H130L143 277V323A7 7 0 0 1 136 330H101A7 7 0 0 1 94 323V271A7 7 0 0 1 101 264Z" fill="#f0443e"/>
      <path d="M130 264V277H143" fill="#ffaca0"/>
      <path d="M105 319c8-12 14-26 17-40 1-6 0-9-2-9-3 0-3 7-2 16 2 11 7 23 15 32 5 6 8 6 10 4 1-2-3-5-9-6-11-3-23-1-33 2-7 3-11 6-10 9 2 2 8 0 15-5" fill="none" stroke="#fff" stroke-width="3" stroke-linecap="round" stroke-linejoin="round"/>
    </g>
  
      
    <g data-popup-role="powerpoint-icon" data-bounds="306,264,49,66">
      <path d="M313 264H342L355 277V323A7 7 0 0 1 348 330H313A7 7 0 0 1 306 323V271A7 7 0 0 1 313 264Z" fill="#ff7a19"/>
      <path d="M342 264V277H355" fill="#ffb58a"/>
      <text x="330.5" y="313" text-anchor="middle" font-size="31" font-weight="800" fill="#fff">P</text>
    </g>
  
      <text data-popup-role="pdf-title" data-bounds="75,337,90,29" x="120" y="360" text-anchor="middle" font-size="24" font-weight="760" fill="#102652">PDF</text>
      <text data-popup-role="powerpoint-title" data-bounds="265,339,134,27" x="332" y="360" text-anchor="middle" font-size="22" font-weight="760" fill="#102652">PowerPoint</text>
      <text data-popup-role="pdf-description" data-bounds="30,374,180,15" x="120" y="385" text-anchor="middle" font-size="12" fill="#7e8796">For sharing and archiving</text>
      <text data-popup-role="powerpoint-description" data-bounds="242,374,179,15" x="332" y="385" text-anchor="middle" font-size="12" fill="#7e8796">For presenting and editing</text>

      <text x="21" y="442" font-size="17" font-weight="750" fill="#13264d">Output style</text>
      <rect x="21" y="452" width="410" height="52" rx="9" fill="#fff9f7" stroke="#f0523d" stroke-width="1.8"/>
      <circle cx="41" cy="478" r="9" fill="#f0523d"/><path d="m37 478 3 3 6-7" fill="none" stroke="#fff" stroke-width="2.5" stroke-linecap="round" stroke-linejoin="round"/>
      <text x="71" y="474" font-size="14" font-weight="720" fill="#1c2d50">Accurate copy</text>
      <text x="71" y="491" font-size="11.5" fill="#7d8796">Preserves the page appearance</text>
      <path d="m407 470 7 8-7 8" fill="none" stroke="#626e7e" stroke-width="1.8"/>

      <rect x="21" y="511" width="410" height="52" rx="9" fill="#fff" stroke="#d0d5dd" stroke-width="1"/>
      <circle cx="41" cy="537" r="9" fill="#fff" stroke="#9aa5b5" stroke-width="1.6"/>
      <text x="71" y="533" font-size="14" font-weight="720" fill="#1c2d50">Editable document</text>
      <text x="71" y="550" font-size="11.5" fill="#7d8796">Rebuilds supported text and links</text>
      <path d="m407 529 7 8-7 8" fill="none" stroke="#626e7e" stroke-width="1.8"/>

      <text x="21" y="594" font-size="17" font-weight="750" fill="#13264d">Customize</text>
      <path d="m411 586 7 7 7-7" fill="none" stroke="#465469" stroke-width="1.8"/>
      <rect x="21" y="608" width="410" height="40" rx="9" fill="#fff" stroke="#d0d5dd"/>
      <rect x="32" y="620" width="15" height="15" rx="3" fill="#fff" stroke="#9da7b5" stroke-width="1.8"/>
      <text x="55" y="632" font-size="11.5" fill="#667184">Remove images</text>
      <path d="M150 614v28M289 614v28" stroke="#d5d9e0"/>
      <rect x="163" y="620" width="15" height="15" rx="3" fill="#fff" stroke="#9da7b5" stroke-width="1.8"/>
      <text x="186" y="632" font-size="11.5" fill="#667184">Remove links</text>
      <rect x="302" y="620" width="15" height="15" rx="3" fill="#fff" stroke="#9da7b5" stroke-width="1.8"/>
      <text x="325" y="632" font-size="11.5" fill="#667184">Remove styling</text>

      <rect x="21" y="658" width="410" height="45" rx="8" fill="#2188ef"/>
      <path data-popup-role="preview-icon" data-bounds="153,670,21,22" d="M153 671h13l7 7v13h-20zM166 671v7h7" fill="none" stroke="#fff" stroke-width="2"/>
      <text data-popup-role="preview-text" data-bounds="188,670,120,24" x="188" y="688" font-size="18" font-weight="700" fill="#fff">Preview PDF</text>
      <text x="226" y="729" text-anchor="middle" font-size="11.5" fill="#7c8696">Uses this tab only · Temporary processing</text>
    </g>
  
    
    <g data-callout="step-6" data-callout-surface="page" data-callout-target="primary">
      <path d="M940 758 C868 758, 758 811, 676 811" fill="none" stroke="#ffffff" stroke-width="14" stroke-linecap="round"/>
      <path d="M940 758 C868 758, 758 811, 676 811" fill="none" stroke="#f0523d" stroke-width="8" stroke-linecap="round" marker-end="url(#arrowHead)"/>
      <circle cx="970" cy="758" r="29" fill="#f0523d" stroke="#fff" stroke-width="5"/>
      <text x="970" y="767" text-anchor="middle" font-size="26" font-weight="800" fill="#fff">6</text>
    </g>
  
  </g>
</svg>
