<svg xmlns="http://www.w3.org/2000/svg" width="1080" height="720" viewBox="0 0 1080 720" role="img" aria-labelledby="title desc">
  <title id="title">Accurate copy sample preview</title>
  <desc id="desc">A long browser page becoming a multi-page visual PDF.</desc>
  <rect width="1080" height="720" fill="#edf4ff"/>
  <rect x="60" y="78" width="500" height="564" rx="24" fill="#fff" stroke="#b8c9e6" stroke-width="3"/>
  <rect x="60" y="78" width="500" height="52" rx="24" fill="#123466"/>
  <circle cx="96" cy="104" r="7" fill="#ff7067"/><circle cx="120" cy="104" r="7" fill="#ffd15c"/><circle cx="144" cy="104" r="7" fill="#4fca84"/>
  <rect x="94" y="162" width="432" height="94" rx="14" fill="#dceaff"/>
  <rect x="94" y="282" width="250" height="18" rx="9" fill="#183b6f"/>
  <rect x="94" y="316" width="406" height="12" rx="6" fill="#a8b9d4"/>
  <rect x="94" y="342" width="388" height="12" rx="6" fill="#a8b9d4"/>
  <rect x="94" y="386" width="406" height="92" rx="14" fill="#f4f8ff" stroke="#c8d7ed"/>
  <rect x="94" y="502" width="406" height="92" rx="14" fill="#f4f8ff" stroke="#c8d7ed"/>
  <path d="M586 360h80" stroke="#357feb" stroke-width="8" stroke-linecap="round"/>
  <path d="m646 332 32 28-32 28" fill="none" stroke="#357feb" stroke-width="8" stroke-linecap="round" stroke-linejoin="round"/>
  <g transform="translate(720 92)">
    <rect width="270" height="190" rx="10" fill="#fff" stroke="#9db3d3" stroke-width="3"/>
    <rect x="24" y="26" width="222" height="38" rx="8" fill="#dceaff"/>
    <rect x="24" y="84" width="130" height="10" rx="5" fill="#183b6f"/>
    <rect x="24" y="108" width="216" height="8" rx="4" fill="#acbdd7"/>
    <rect x="24" y="128" width="204" height="8" rx="4" fill="#acbdd7"/>
  </g>
  <g transform="translate(720 302)">
    <rect width="270" height="190" rx="10" fill="#fff" stroke="#9db3d3" stroke-width="3"/>
    <rect x="24" y="30" width="216" height="60" rx="8" fill="#f4f8ff" stroke="#c8d7ed"/>
    <rect x="24" y="112" width="216" height="8" rx="4" fill="#acbdd7"/>
    <rect x="24" y="132" width="186" height="8" rx="4" fill="#acbdd7"/>
  </g>
  <g transform="translate(720 512)">
    <rect width="270" height="118" rx="10" fill="#fff" stroke="#9db3d3" stroke-width="3"/>
    <rect x="24" y="26" width="216" height="36" rx="8" fill="#dceaff"/>
    <rect x="24" y="82" width="154" height="8" rx="4" fill="#acbdd7"/>
  </g>
  <rect x="60" y="24" width="228" height="36" rx="18" fill="#d8e7ff"/>
  <text x="174" y="48" text-anchor="middle" font-family="Arial, sans-serif" font-size="15" font-weight="700" fill="#153868">VERIFIED E2E SAMPLE</text>
</svg>
